<svg xmlns="http://www.w3.org/2000/svg" viewBox="0 0 458.72 204.85"><defs><style>.cls-1{fill:#15322e;}.cls-2{fill:#4bb77d;}.cls-3{fill:#231f20;}</style></defs><g id="Layer_2" data-name="Layer 2"><g id="Layer_1-2" data-name="Layer 1"><path class="cls-1" d="M0,0,.16,204.85H142.22V0ZM122.94,179.06H19.07V61.94Q18.92,59,18.92,56t.15-5.92V26.7H122.94Z"/><rect class="cls-2" x="95.81" y="37.21" width="18.92" height="24.9"/><path class="cls-1" d="M87.74,62.11H46.08c.45,12.66,4.51,24.06,10.82,32.4.79,1,1.6,2,2.46,3,6.3,7,14.39,11.12,23.2,11.12a27.07,27.07,0,0,0,5.18-.49v60H26.92V98.51A87.46,87.46,0,0,0,46,128v14.65h23V131.51C51.53,123,37.43,104.91,30.24,82a74.92,74.92,0,0,1-3.32-22.3V37.21H87.74Z"/><path class="cls-1" d="M114.73,73.55V169H95.81V98.82l-8.07-.3-8-.29-.83,0c-9.53-3.65-17.45-12.4-22-23.91v-.74Z"/><path class="cls-3" d="M155.17,115.78l10.4-.94a15.13,15.13,0,0,0,1.38,5.6,5.25,5.25,0,0,0,4.82,3.12,4.32,4.32,0,0,0,3.61-1.6,5.93,5.93,0,0,0,.06-7.26c-.8-1-2.67-2-5.6-3q-7.18-2.34-10.25-6.23a15.44,15.44,0,0,1-3.09-9.91,18,18,0,0,1,1.58-7.48,12.44,12.44,0,0,1,4.75-5.53q3.18-2,8.7-2,6.78,0,10.34,3.66c2.38,2.43,3.79,6.32,4.24,11.64l-10.31.87a9.61,9.61,0,0,0-1.72-5,4.48,4.48,0,0,0-3.63-1.57,3.5,3.5,0,0,0-2.87,1.17,4.3,4.3,0,0,0-1,2.85,3.43,3.43,0,0,0,.8,2.21q.76,1,3.66,1.89c4.78,1.49,8.21,3,10.27,4.53a13.47,13.47,0,0,1,4.52,5.69,19.68,19.68,0,0,1,1.41,7.6,21.82,21.82,0,0,1-1.89,9.11,14.14,14.14,0,0,1-5.26,6.32,15.61,15.61,0,0,1-8.52,2.15q-9,0-12.5-5A24.87,24.87,0,0,1,155.17,115.78Z"/><path class="cls-3" d="M191.39,107.13q0-12.57,4.83-19.57a15.42,15.42,0,0,1,13.44-7q8.84,0,13.61,6.88t4.78,19.27q0,9-2.09,14.76a20,20,0,0,1-6,9,15.12,15.12,0,0,1-9.83,3.2,16.74,16.74,0,0,1-9.91-2.77q-3.91-2.76-6.36-8.75A40.08,40.08,0,0,1,191.39,107.13Zm10.94.07q0,7.78,2,11.17a6.07,6.07,0,0,0,10.87.07q1.94-3.31,1.93-11.94,0-7.25-2-10.59a6.15,6.15,0,0,0-5.47-3.34c-2.21,0-4,1.13-5.31,3.39S202.33,102,202.33,107.2Z"/><path class="cls-3" d="M234,81.43h27v11H245v9h13.71v10.36H245v21H234Z"/><path class="cls-3" d="M264.42,81.43h33.23V94.11H286.5v38.66H275.57V94.11H264.42Z"/><path class="cls-3" d="M299,81.43h10.38l3.74,28.74,5.47-28.74h10.34l5.49,28.7,3.74-28.7h10.33l-7.8,51.34H329.93l-6.2-32.32-6.18,32.32H306.83Z"/><path class="cls-3" d="M373.78,124.29H361.36l-1.72,8.48H348.48l13.29-51.34H373.7L387,132.77H375.54Zm-2.27-11.1L367.6,94.74l-3.86,18.45Z"/><path class="cls-3" d="M390.61,132.77V81.43h18.22a18.81,18.81,0,0,1,7.75,1.26,9.31,9.31,0,0,1,4.32,4.68,19.09,19.09,0,0,1,1.64,8.31,19.49,19.49,0,0,1-1.26,7.37,12.89,12.89,0,0,1-3.45,5,11,11,0,0,1-3.84,2,10,10,0,0,1,2.85,1.89,15.45,15.45,0,0,1,1.75,2.7,22.78,22.78,0,0,1,1.53,3.19l5.29,14.88H413.06l-5.84-15.69a12.7,12.7,0,0,0-2-4,3.7,3.7,0,0,0-2.68-1.19h-1v20.84Zm11-30.54h4.61a11.67,11.67,0,0,0,2.9-.7,3,3,0,0,0,1.77-1.61,6.24,6.24,0,0,0,.69-3,5.84,5.84,0,0,0-1.09-3.81c-.72-.89-2.08-1.33-4.07-1.33h-4.81Z"/><path class="cls-3" d="M428.89,81.43h29.29v11H439.84v8.16h17V111h-17v10.12h18.88v11.63H428.89Z"/><path class="cls-3" d="M154.31,15.63h32V28.3H175.57V67H165V28.3H154.31Z"/><path class="cls-3" d="M191.11,15.63h10.53v18h11.5v-18h10.57V67H213.14V46.19h-11.5V67H191.11Z"/><path class="cls-3" d="M230.69,15.63h28.2v11H241.23v8.15h16.39V45.21H241.23V55.33h18.18V67H230.69Z"/><path class="cls-3" d="M157.32,148.11h10.29v51.34H157.32Z"/><path class="cls-3" d="M175.05,148.11h9.59l12.52,28.4v-28.4h9.68v51.34h-9.68l-12.45-28.19v28.19h-9.66Z"/><path class="cls-3" d="M211.87,182.46l9.78-.94a15.76,15.76,0,0,0,1.29,5.6q1.59,3.12,4.53,3.12a4,4,0,0,0,3.39-1.6,6.26,6.26,0,0,0,.06-7.26q-1.14-1.57-5.26-3-6.76-2.34-9.64-6.23a16.16,16.16,0,0,1-2.9-9.91,19.05,19.05,0,0,1,1.48-7.48,12.25,12.25,0,0,1,4.47-5.53c2-1.34,4.71-2,8.18-2q6.36,0,9.71,3.66t4,11.64l-9.68.87a10.13,10.13,0,0,0-1.62-5,4.1,4.1,0,0,0-3.41-1.57,3.19,3.19,0,0,0-2.7,1.17,4.48,4.48,0,0,0-.91,2.85,3.54,3.54,0,0,0,.75,2.21q.72,1,3.45,1.89c4.48,1.49,7.7,3,9.64,4.53a13.21,13.21,0,0,1,4.24,5.69,20.65,20.65,0,0,1,1.33,7.6,23.09,23.09,0,0,1-1.77,9.11,12.87,12.87,0,0,1-12.95,8.47q-8.48,0-11.74-5T211.87,182.46Z"/><path class="cls-3" d="M247.61,148.11H257.9v51.34H247.61Z"/><path class="cls-3" d="M282,180.85V170.17h15.87v21.89a30.85,30.85,0,0,1-8.06,6.53,18.59,18.59,0,0,1-8.31,1.73,14.51,14.51,0,0,1-9.64-3.12,19.93,19.93,0,0,1-5.79-9.27A44.72,44.72,0,0,1,264,173.78a43,43,0,0,1,2.25-14.62,19.66,19.66,0,0,1,6.57-9.44q3.38-2.47,9.09-2.48c3.68,0,6.42.51,8.25,1.54a11.92,11.92,0,0,1,4.53,4.78,26.7,26.7,0,0,1,2.71,8.21l-9.91,2.73a9.1,9.1,0,0,0-2.07-4.45,5,5,0,0,0-3.73-1.54c-2.26,0-4.05,1.21-5.39,3.63s-2,6.24-2,11.46q0,8.34,2,11.91a6.26,6.26,0,0,0,5.66,3.57,7.39,7.39,0,0,0,3.29-.77,15.89,15.89,0,0,0,3.58-2.63v-4.83Z"/><path class="cls-3" d="M304,148.11h10.27v18h11.22v-18h10.32v51.34H325.49V178.68H314.27v20.77H304Z"/><path class="cls-3" d="M340.3,148.11h31.22v12.68H361.05v38.66H350.78V160.79H340.3Z"/></g></g></svg>