<svg xmlns="http://www.w3.org/2000/svg" viewBox="0 0 730.37 297.15"><defs><style>.cls-1{fill:#fff;}</style></defs><g id="Layer_2" data-name="Layer 2"><g id="Layer_1-2" data-name="Layer 1"><path class="cls-1" d="M0,0,.32,297.15H276V0ZM238.63,259.74H37V89.85c-.18-2.83-.28-5.69-.28-8.58s.1-5.74.28-8.58v-34H238.63Z"/><rect class="cls-1" x="185.97" y="53.97" width="36.71" height="36.12"/><path class="cls-1" d="M170.29,90.09H89.44a70.62,70.62,0,0,0,21,47c1.52,1.51,3.1,2.94,4.76,4.3a71,71,0,0,0,55.08,15.43v87h-118V142.9a130.29,130.29,0,0,0,37.1,42.77v21.24H134V190.76A130.22,130.22,0,0,1,58.7,119,83.67,83.67,0,0,1,52.26,86.6V54h118Z"/><path class="cls-1" d="M222.69,106.69v138.5H186V143.35l-15.68-.44-15.52-.42-1.6-.05a70.23,70.23,0,0,1-42.72-34.68v-1.07Z"/><path class="cls-1" d="M308.44,159.29,322.9,158a21.58,21.58,0,0,0,1.91,7.92c1.57,2.93,3.8,4.4,6.71,4.4a6,6,0,0,0,5-2.25,8.25,8.25,0,0,0,1.76-5.22,8.16,8.16,0,0,0-1.68-5.05q-1.68-2.23-7.78-4.21-10-3.31-14.26-8.81t-4.29-14a25.91,25.91,0,0,1,2.19-10.56,17.54,17.54,0,0,1,6.61-7.83q4.41-2.84,12.1-2.84,9.42,0,14.37,5.17t5.89,16.46l-14.33,1.24q-.57-4.91-2.4-7.13a6.14,6.14,0,0,0-5-2.23,4.84,4.84,0,0,0-4,1.66,6.24,6.24,0,0,0-1.34,4,4.85,4.85,0,0,0,1.11,3.12c.71,1,2.42,1.85,5.1,2.68q10,3.17,14.27,6.41a18.73,18.73,0,0,1,6.27,8,28.11,28.11,0,0,1,2,10.74,31.44,31.44,0,0,1-2.62,12.87,19.83,19.83,0,0,1-7.31,8.93,21.36,21.36,0,0,1-11.84,3q-12.56,0-17.38-7.13T308.44,159.29Z"/><path class="cls-1" d="M358.79,147.07q0-17.77,6.71-27.67a21.34,21.34,0,0,1,18.69-9.9q12.27,0,18.92,9.73t6.64,27.24q0,12.74-2.9,20.87A28.29,28.29,0,0,1,398.46,180a20.75,20.75,0,0,1-13.67,4.53q-8.32,0-13.77-3.91t-8.84-12.38Q358.79,159.79,358.79,147.07Zm15.2.1q0,11,2.77,15.79t7.53,4.8q4.89,0,7.58-4.7t2.68-16.88q0-10.25-2.8-15t-7.6-4.72q-4.59,0-7.38,4.8T374,147.17Z"/><path class="cls-1" d="M418,110.74h37.57v15.59H433.26V139h19.06v14.65H433.26V183.3H418Z"/><path class="cls-1" d="M460.3,110.74h46.19v17.91H491V183.3H475.8V128.65H460.3Z"/><path class="cls-1" d="M508.3,110.74h14.44l5.19,40.62,7.61-40.62h14.38l7.62,40.57,5.21-40.57H577.1L566.26,183.3h-14.9l-8.62-45.69-8.59,45.69H519.24Z"/><path class="cls-1" d="M612.3,171.32H595.05l-2.4,12H577.14l18.48-72.56H612.2l18.48,72.56H614.76Zm-3.15-15.69-5.43-26.08-5.37,26.08Z"/><path class="cls-1" d="M635.71,183.3V110.74H661q7.05,0,10.77,1.78a13.14,13.14,0,0,1,6,6.61,27.33,27.33,0,0,1,2.28,11.75,28,28,0,0,1-1.75,10.42,18.35,18.35,0,0,1-4.8,7.1,15.19,15.19,0,0,1-5.33,2.88,13.69,13.69,0,0,1,3.95,2.67,21.41,21.41,0,0,1,2.43,3.82,32.47,32.47,0,0,1,2.13,4.5l7.36,21H666.91l-8.12-22.17c-1-2.88-1.95-4.74-2.75-5.6a5.1,5.1,0,0,0-3.73-1.68H651V183.3ZM651,140.14h6.41a16.24,16.24,0,0,0,4-1,4.21,4.21,0,0,0,2.47-2.28,8.92,8.92,0,0,0,1-4.21,8.46,8.46,0,0,0-1.51-5.39q-1.52-1.87-5.67-1.88H651Z"/><path class="cls-1" d="M688.91,110.74h40.72v15.49H704.14v11.53h23.65v14.8H704.14v14.31h26.23V183.3H688.91Z"/><path class="cls-1" d="M306.06,16.86h46.19V34.78h-15.5V89.43h-15.2V34.78H306.06Z"/><path class="cls-1" d="M359.19,16.86h15.2v25.4H391V16.86h15.27V89.43H391V60.08h-16.6V89.43h-15.2Z"/><path class="cls-1" d="M416.32,16.86H457v15.5H431.55V43.89H455.2v14.8H431.55V73h26.23V89.43H416.32Z"/><path class="cls-1" d="M314.1,203.93h15.23V276.5H314.1Z"/><path class="cls-1" d="M340.33,203.93h14.19L373,244.08V203.93h14.32V276.5H373l-18.42-39.84V276.5H340.33Z"/><path class="cls-1" d="M394.81,252.49l14.46-1.33a21.58,21.58,0,0,0,1.91,7.92q2.34,4.4,6.71,4.4a6,6,0,0,0,5-2.25A8.55,8.55,0,0,0,423,251q-1.68-2.24-7.79-4.21-10-3.31-14.25-8.81t-4.3-14a26,26,0,0,1,2.2-10.57,17.57,17.57,0,0,1,6.61-7.82q4.41-2.83,12.09-2.84,9.43,0,14.38,5.17t5.88,16.46l-14.32,1.23c-.38-3.26-1.18-5.64-2.4-7.12a6.16,6.16,0,0,0-5-2.23,4.82,4.82,0,0,0-4,1.66,6.22,6.22,0,0,0-1.34,4,4.85,4.85,0,0,0,1.11,3.12q1.06,1.44,5.09,2.67,10,3.18,14.28,6.41a19,19,0,0,1,6.27,8.05,28.11,28.11,0,0,1,2,10.74,31.43,31.43,0,0,1-2.61,12.87,20,20,0,0,1-7.32,8.93,21.34,21.34,0,0,1-11.84,3.05q-12.54,0-17.37-7.13T394.81,252.49Z"/><path class="cls-1" d="M447.68,203.93h15.23V276.5H447.68Z"/><path class="cls-1" d="M498.53,250.22v-15.1H522v30.93q-6.74,6.79-11.92,9.24a28.62,28.62,0,0,1-12.3,2.45q-8.76,0-14.27-4.41T475,260.21a60.69,60.69,0,0,1-3-20,58.5,58.5,0,0,1,3.32-20.67q3.31-8.79,9.73-13.34,5-3.51,13.45-3.51,8.15,0,12.19,2.17a17.36,17.36,0,0,1,6.71,6.76,36.58,36.58,0,0,1,4,11.61l-14.66,3.86a12.57,12.57,0,0,0-3.07-6.29,7.44,7.44,0,0,0-5.52-2.17q-5,0-8,5.12t-3,16.21q0,11.78,3,16.83t8.37,5.05a11.35,11.35,0,0,0,4.86-1.09,23.74,23.74,0,0,0,5.3-3.71v-6.83Z"/><path class="cls-1" d="M531.1,203.93h15.2v25.4h16.6v-25.4h15.27V276.5H562.9V247.15H546.3V276.5H531.1Z"/><path class="cls-1" d="M584.81,203.93H631v17.92H615.5V276.5H600.31V221.85h-15.5Z"/></g></g></svg>