<svg id="Layer_1" data-name="Layer 1" xmlns="http://www.w3.org/2000/svg" viewBox="0 0 24 24"><path d="M17.25,5.5A5.62,5.62,0,1,1,11.66-.12,5.6,5.6,0,0,1,17.25,5.5Zm-1.61,0a4,4,0,1,0-4,4A4,4,0,0,0,15.64,5.49Z"/><path d="M2,20.74h9.63a.79.79,0,0,1,.84.79.77.77,0,0,1-.8.81c-.71,0-1.42,0-2.13,0H1.33a.81.81,0,0,1-.93-.93,20.88,20.88,0,0,1,.11-2.63,7.11,7.11,0,0,1,5.65-5.91,8.33,8.33,0,0,1,1.41-.15c1.26,0,2.52,0,3.79,0a.8.8,0,1,1,0,1.6H7.7a5.58,5.58,0,0,0-5.56,4.5A16.47,16.47,0,0,0,2,20.74Z"/><path d="M18.66,13a4.82,4.82,0,1,1-4.82,4.77A4.81,4.81,0,0,1,18.66,13Zm0,8a3.2,3.2,0,1,0-3.2-3.24A3.22,3.22,0,0,0,18.64,21Z"/><path d="M19.45,18.73c0,.28,0,.55,0,.83a.78.78,0,0,1-.8.78.79.79,0,0,1-.8-.79V17.9a.8.8,0,1,1,1.6,0C19.46,18.18,19.45,18.46,19.45,18.73Z"/><path d="M19.45,16.1a.79.79,0,0,1-.8.79.8.8,0,0,1-.8-.81.81.81,0,0,1,.8-.8A.8.8,0,0,1,19.45,16.1Z"/></svg>