<svg xmlns="http://www.w3.org/2000/svg" viewBox="0 0 22.28 24.23"><defs><style>.cls-1{fill:#fff;}</style></defs><g id="Layer_2" data-name="Layer 2"><g id="Layer_1-2" data-name="Layer 1"><path d="M13,0l.74.1c.4,0,.48.15.45.55L14,2.47c0,.23-.17.37-.36.35a.34.34,0,0,1-.3-.4c0-.47.08-.93.12-1.39a2,2,0,0,1,0-.25,8.37,8.37,0,0,0-2.78,0c0,.43.06.86.1,1.28,0,.08,0,.15,0,.22,0,.44,0,.49-.45.58a9.28,9.28,0,0,0-3.61,1.5c-.3.2-.4.19-.63-.07L5.09,3.07a11.3,11.3,0,0,0-2,2L4.26,6.14c.27.24.29.35.08.66a9.21,9.21,0,0,0-1.49,3.62c-.05.29-.16.38-.45.37l-1.2-.07-.45,0a11.81,11.81,0,0,0,0,2.85l1.19-.07.48,0c.27,0,.38.08.43.36a8.38,8.38,0,0,0,.73,2.29c.23.47.51.92.78,1.37.17.27.16.39-.08.61L3.07,19.14a11.36,11.36,0,0,0,2,2l1-1.17c.28-.31.36-.32.7-.09a9.43,9.43,0,0,0,3.6,1.49c.32.06.39.17.37.5,0,.52-.06,1-.1,1.58a10.46,10.46,0,0,0,2.85,0c0-.56-.06-1.1-.09-1.63,0-.28.08-.44.29-.45s.35.13.37.4c0,.62.07,1.24.1,1.86,0,.31-.06.4-.36.45a12.45,12.45,0,0,1-3.11.05l-.33,0c-.33-.06-.42-.16-.4-.49l.09-1.47c0-.12,0-.18-.16-.2a9.91,9.91,0,0,1-3.29-1.37l-.11-.06-1,1.17c-.28.31-.38.32-.71.07a12.09,12.09,0,0,1-2.36-2.38c-.21-.27-.19-.4.06-.62l1.22-1.08a10.21,10.21,0,0,1-1.48-3.57l-1.61.09c-.36,0-.46-.06-.51-.42a12.83,12.83,0,0,1,0-3.39c0-.31.16-.41.47-.39l1.64.1A10.14,10.14,0,0,1,3.71,6.54l-1.14-1c-.36-.32-.37-.4-.08-.78A12.36,12.36,0,0,1,4.78,2.47c.34-.26.44-.25.73.07l1,1.17a10.22,10.22,0,0,1,3.63-1.49c0-.57-.08-1.11-.12-1.65,0-.31.06-.41.37-.46L11.28,0Z"/><path d="M13.27,12.46v5.75A2.15,2.15,0,0,1,11,20.39a2.07,2.07,0,0,1-1.78-1.11A.29.29,0,0,0,9,19.1a2.15,2.15,0,0,1-2-2.14c0-.11,0-.18-.15-.22a2.7,2.7,0,0,1-1.17-4.57l0-.05-.29-.33A2.7,2.7,0,0,1,6.63,7.54.38.38,0,0,0,7,7.14a2.13,2.13,0,0,1,2-2,.3.3,0,0,0,.28-.19,2.15,2.15,0,0,1,4,1c0,1.84,0,3.67,0,5.51v.3h6.94a.32.32,0,0,0,.32-.16.91.91,0,0,1,1.06-.42,1,1,0,0,1,0,1.83,1,1,0,0,1-1.09-.42.35.35,0,0,0-.24-.16h-7Zm-5.65,4.4s0,.06,0,.11a1.49,1.49,0,0,0,2.23,1.27c.14-.08.21-.15.17-.34a.92.92,0,0,1,.53-1,1,1,0,0,1,1.2,1.38.94.94,0,0,1-1.09.39.46.46,0,0,0-.2,0c-.21.12-.41.25-.61.38a1.46,1.46,0,0,0,1.49.7,1.5,1.5,0,0,0,1.28-1.55V12.44h-.32c-1.83,0-3.66,0-5.49,0a1.08,1.08,0,0,0-1,.55A2,2,0,0,0,8,16a.29.29,0,0,0,.23-.33.94.94,0,0,1,1.06-1,1,1,0,0,1,.52,1.66.93.93,0,0,1-1,.15.43.43,0,0,0-.25,0C8.25,16.63,8,16.74,7.62,16.86Zm0-9.49c.32.11.6.19.88.3a.44.44,0,0,0,.39,0,.91.91,0,0,1,1.16.45,1,1,0,1,1-1.76.16,1.81,1.81,0,0,0-1-.23A2,2,0,0,0,5.54,9.5a1.94,1.94,0,0,0,.59,2.12.73.73,0,0,0,.42.16H12.6c0-2,0-3.93,0-5.88a1.48,1.48,0,0,0-2.76-.68,3.24,3.24,0,0,1,.54.33c.21.2.4,0,.6,0a1,1,0,0,1,.91,1,1,1,0,0,1-1.06.87A.92.92,0,0,1,10,6.35.28.28,0,0,0,9.84,6a1.49,1.49,0,0,0-2.09.65A1.28,1.28,0,0,0,7.62,7.37ZM9.49,8.58a.26.26,0,0,0-.28-.28.28.28,0,0,0-.29.3.27.27,0,0,0,.3.27A.26.26,0,0,0,9.49,8.58Zm12.12,3.55a.28.28,0,0,0-.28-.3.29.29,0,0,0-.29.3.28.28,0,0,0,.29.28A.27.27,0,0,0,21.61,12.13ZM9.2,15.41c-.18,0-.28.11-.28.29a.29.29,0,0,0,.29.29.28.28,0,0,0,.28-.31A.27.27,0,0,0,9.2,15.41Zm1.72-8.58a.28.28,0,0,0,.31-.27.3.3,0,0,0-.29-.31.28.28,0,0,0-.28.29A.26.26,0,0,0,10.92,6.83Zm-.27,10.91a.29.29,0,0,0,.29.29.3.3,0,0,0,.29-.31.29.29,0,0,0-.58,0Z"/><path d="M18.76,19.21c-.37-.54-.73-1.07-1.1-1.59a.52.52,0,0,0-.3-.13h-3c-.38,0-.55-.1-.56-.33s.18-.34.55-.34h3.21a.59.59,0,0,1,.55.29c.38.56.77,1.12,1.16,1.66a.4.4,0,0,0,.26.16,1,1,0,0,1,.87.8,1,1,0,0,1-.53,1,.94.94,0,0,1-1.12-.22,1,1,0,0,1-.09-1.16Zm.67.95a.3.3,0,0,0,.32-.28.28.28,0,0,0-.3-.29.25.25,0,0,0-.27.29A.26.26,0,0,0,19.43,20.16Z"/><path d="M15.93,7.33H14.25c-.29,0-.45-.12-.45-.33s.17-.33.44-.33h3.1a.37.37,0,0,0,.36-.19c.31-.46.62-.91.94-1.36a.31.31,0,0,0,0-.38.91.91,0,0,1,.23-1.11,1,1,0,0,1,1.14-.09,1,1,0,0,1,.4,1.07.92.92,0,0,1-.91.68.34.34,0,0,0-.34.18c-.36.53-.74,1-1.09,1.58a.55.55,0,0,1-.52.28C17,7.32,16.48,7.33,15.93,7.33Zm3.89-2.95a.29.29,0,0,0-.28-.31.29.29,0,0,0-.3.3.28.28,0,0,0,.3.27A.26.26,0,0,0,19.82,4.38Z"/><path d="M17.26,9.74h2a.89.89,0,0,0,.36-.16,1.18,1.18,0,0,0,.25-.25c.2-.21.39-.36.29-.74a.9.9,0,0,1,.86-1.06,1,1,0,0,1,.13,1.91h-.05c-.36-.16-.56.09-.73.33a1.58,1.58,0,0,1-1.49.64c-1.23-.05-2.47,0-3.71,0-.2,0-.36-.05-.42-.27s.1-.39.37-.39Zm3.84-1a.29.29,0,0,0,.31-.27.29.29,0,1,0-.57,0A.26.26,0,0,0,21.1,8.77Z"/><path d="M17.38,13.85h2.1a.62.62,0,0,1,.54.23,5.51,5.51,0,0,0,.41.43.94.94,0,0,0,.72.4.9.9,0,0,1,.84,1,1,1,0,0,1-1,.86,1,1,0,0,1-.9-1,.94.94,0,0,1,.08-.34.27.27,0,0,0-.05-.35,1.48,1.48,0,0,0-1.41-.62c-1.14.06-2.29,0-3.43,0-.1,0-.23,0-.29,0a.49.49,0,0,1-.19-.33c0-.1.14-.21.24-.27s.17,0,.26,0Zm3.95,2a.26.26,0,0,0-.29-.26.28.28,0,0,0-.29.28.3.3,0,0,0,.31.29A.28.28,0,0,0,21.33,15.81Z"/><path class="cls-1" d="M9.49,8.58a.26.26,0,0,1-.27.29.27.27,0,0,1-.3-.27.28.28,0,0,1,.29-.3A.26.26,0,0,1,9.49,8.58Z"/><path class="cls-1" d="M21.61,12.13a.27.27,0,0,1-.28.28.28.28,0,0,1-.29-.28.29.29,0,0,1,.29-.3A.28.28,0,0,1,21.61,12.13Z"/><path class="cls-1" d="M9.2,15.41a.27.27,0,0,1,.29.27.28.28,0,0,1-.28.31.29.29,0,0,1-.29-.29C8.92,15.52,9,15.43,9.2,15.41Z"/><path class="cls-1" d="M10.92,6.83a.26.26,0,0,1-.26-.29.28.28,0,0,1,.28-.29.3.3,0,0,1,.29.31A.28.28,0,0,1,10.92,6.83Z"/><path class="cls-1" d="M10.65,17.74a.29.29,0,0,1,.58,0,.3.3,0,0,1-.29.31A.29.29,0,0,1,10.65,17.74Z"/><path class="cls-1" d="M19.43,20.16a.26.26,0,0,1-.25-.28.25.25,0,0,1,.27-.29.28.28,0,0,1,.3.29A.3.3,0,0,1,19.43,20.16Z"/><path class="cls-1" d="M19.82,4.38a.26.26,0,0,1-.28.26.28.28,0,0,1-.3-.27.29.29,0,0,1,.3-.3A.29.29,0,0,1,19.82,4.38Z"/><path class="cls-1" d="M21.1,8.77a.26.26,0,0,1-.26-.28.29.29,0,1,1,.57,0A.29.29,0,0,1,21.1,8.77Z"/><path class="cls-1" d="M21.33,15.81a.28.28,0,0,1-.27.31.3.3,0,0,1-.31-.29.28.28,0,0,1,.29-.28A.26.26,0,0,1,21.33,15.81Z"/></g></g></svg>