<svg id="Layer_1" data-name="Layer 1" xmlns="http://www.w3.org/2000/svg" viewBox="0 0 24 24"><path d="M9.46,24a2.3,2.3,0,0,1-1.36-.78,2.05,2.05,0,0,1-.49-1.38.88.88,0,0,1,1.75-.11c0,.09,0,.2.05.25s.23.23.35.22.23-.15.32-.25,0-.15.05-.23a.89.89,0,0,1,.92-.75.91.91,0,0,1,.83.91A2.15,2.15,0,0,1,10.19,24L10,24Z"/><path d="M14,24a2.58,2.58,0,0,1-1.12-.53,2.14,2.14,0,0,1-.72-1.64.88.88,0,0,1,1.75-.11l0,.19a.34.34,0,0,0,.33.31.35.35,0,0,0,.38-.3,1.65,1.65,0,0,1,.06-.32.88.88,0,0,1,1.72.26A2.14,2.14,0,0,1,14.75,24l-.16.05Z"/><path d="M16.15,2.71c.46.47.93.91,1.34,1.4A6.48,6.48,0,0,1,18.9,7.36l0,.17A.91.91,0,0,1,18,8.67H6.09a.92.92,0,0,1-1-1.17A6.89,6.89,0,0,1,7.86,2.83L8,2.77c-.36-.57-.71-1.11-1-1.66a.87.87,0,0,1,0-1.06A.88.88,0,0,1,8.37.14c.35.51.68,1,1,1.56a.28.28,0,0,0,.39.14,6.77,6.77,0,0,1,4.53,0,.29.29,0,0,0,.4-.15c.32-.52.65-1,1-1.55a.89.89,0,0,1,1-.42.83.83,0,0,1,.67.77,1.23,1.23,0,0,1-.17.64c-.27.47-.58.92-.87,1.38A1.28,1.28,0,0,0,16.15,2.71ZM17,6.87a5.13,5.13,0,0,0-5.52-3.61A5.06,5.06,0,0,0,7.11,6.87Z"/><path d="M12,19.49H7.44A2.18,2.18,0,0,1,5.33,18.2a2.38,2.38,0,0,1-.22-1c0-2,0-4.08,0-6.12a.87.87,0,0,1,.84-.91.86.86,0,0,1,.92.87c0,.54,0,1.07,0,1.61V17c0,.56.15.71.7.71h8.92c.54,0,.69-.16.69-.69,0-1.92,0-3.84,0-5.76a1.48,1.48,0,0,1,0-.47.88.88,0,0,1,1.71.26c0,1,0,2.08,0,3.13s0,2,0,2.94a2.25,2.25,0,0,1-2.35,2.36Z"/><path d="M1.92,12.91c0-.91,0-1.82,0-2.72A2.12,2.12,0,0,1,4.18,8.34a.88.88,0,0,1,.73.87.86.86,0,0,1-.73.88c-.46.07-.51.13-.51.6v4.5c0,.39.08.48.46.55a.87.87,0,0,1,.78,1,.89.89,0,0,1-1,.75,2.16,2.16,0,0,1-2-2.28c0-.76,0-1.53,0-2.3Z"/><path d="M22.13,12.91c0,.9,0,1.81,0,2.71a2.12,2.12,0,0,1-2.19,1.87.88.88,0,0,1-.06-1.75c.45-.07.5-.14.5-.6v-4.5c0-.41-.08-.49-.48-.55a.87.87,0,0,1-.76-.93A.86.86,0,0,1,20,8.34a2.11,2.11,0,0,1,2.14,1.92c0,.44,0,.88,0,1.33s0,.88,0,1.32Z"/></svg>