<svg id="Layer_1" data-name="Layer 1" xmlns="http://www.w3.org/2000/svg" viewBox="0 0 24 24"><defs><style>.cls-1{fill:#fff;}</style></defs><path d="M.25,11.67V5.87A1.91,1.91,0,0,1,1.59,3.92a2.57,2.57,0,0,1,.78-.1h7.72a.27.27,0,0,0,.31-.22,2.2,2.2,0,0,1,.92-1.06,6.62,6.62,0,0,1,2.6-1,12,12,0,0,1,5.68.26,5,5,0,0,1,1.84.95,2,2,0,0,1,.65.92.28.28,0,0,0,.17.15,2,2,0,0,1,1.54,2V17.43a2,2,0,0,1-2.09,2.08H14.53c-.19,0-.28,0-.34.22a3,3,0,0,0,0,2.26.23.23,0,0,0,.25.17c.28,0,.57,0,.85,0s.32.06.34.27-.12.27-.36.27H8.74c-.19,0-.32-.05-.34-.26s.12-.28.35-.28.56,0,.84,0A.23.23,0,0,0,9.84,22a3,3,0,0,0,0-2.36c-.07-.16-.18-.13-.29-.13H2.24A1.92,1.92,0,0,1,.31,18a2.64,2.64,0,0,1-.06-.63Zm21.9-7.26a1,1,0,0,0,0,.17c0,1.8,0,3.59,0,5.38a1.73,1.73,0,0,1-.52,1.28,3.77,3.77,0,0,1-1.47.92,11.66,11.66,0,0,1-6.94.31A5.11,5.11,0,0,1,11,11.36a1.69,1.69,0,0,1-.65-1.3c0-1.81,0-3.63,0-5.45,0-.08,0-.16,0-.24l-.09,0h-8A1.37,1.37,0,0,0,.79,5.77q0,5.88,0,11.77a1.69,1.69,0,0,0,.08.5A1.35,1.35,0,0,0,2.29,19h7.93c3.84,0,7.67,0,11.51,0a1.46,1.46,0,0,0,1.53-1.53c0-3.05,0-6.1,0-9.15,0-.85,0-1.7,0-2.55A1.32,1.32,0,0,0,22.15,4.41Zm-6-2.51a10.42,10.42,0,0,0-2.76.34,5.1,5.1,0,0,0-2,.95,1,1,0,0,0,0,1.74,3.84,3.84,0,0,0,1.51.82,11.19,11.19,0,0,0,6.46.11A4.68,4.68,0,0,0,21.11,5a1,1,0,0,0,0-1.74,4,4,0,0,0-1.31-.74A10.5,10.5,0,0,0,16.12,1.9Zm5.46,6.38a4.88,4.88,0,0,1-2,1.08,12,12,0,0,1-6.07.16,5.63,5.63,0,0,1-2.58-1.2s0,0-.05,0c0,.51,0,1,0,1.54a1.34,1.34,0,0,0,.59,1.2,4.18,4.18,0,0,0,.63.4,7.93,7.93,0,0,0,2.87.76A11.66,11.66,0,0,0,19,12a4.92,4.92,0,0,0,2.06-1,1.17,1.17,0,0,0,.51-.78C21.6,9.6,21.58,9,21.58,8.28Zm-10.73-3c0,.57,0,1.1,0,1.61A1.32,1.32,0,0,0,11.41,8a4.19,4.19,0,0,0,.67.42,7.53,7.53,0,0,0,2.63.73,11.29,11.29,0,0,0,4.9-.41,4,4,0,0,0,1.58-.87,1.2,1.2,0,0,0,.41-.86V5.32s0,0,0,0a6.18,6.18,0,0,1-3,1.31,12.38,12.38,0,0,1-4.5,0A6.37,6.37,0,0,1,10.85,5.26Zm2.84,14.26H10.36a3.59,3.59,0,0,1,0,2.62h3.31A3.49,3.49,0,0,1,13.69,19.52Z"/><path class="cls-1" d="M13.69,19.52a3.49,3.49,0,0,0,0,2.62H10.37a3.59,3.59,0,0,0,0-2.62Z"/><path d="M11.13,16.89H7.51c-.07,0-.16,0-.21,0s-.19-.15-.2-.24.09-.2.18-.25.19,0,.29,0h7.16a.68.68,0,0,1,.29,0,.42.42,0,0,1,.18.28c0,.08-.12.17-.21.23s-.12,0-.18,0Z"/><path d="M18.78,14.93H16.22c-.08,0-.18,0-.23,0s-.21-.16-.21-.23a.44.44,0,0,1,.2-.27c.06,0,.17,0,.25,0h5.19c.28,0,.41.09.39.28s-.19.26-.39.26Z"/><path d="M9.11,10.57,7.61,9.34c-.2-.16-.24-.32-.13-.46s.28-.12.47,0L9.64,10.3c.23.19.23.35,0,.55-.57.46-1.14.92-1.7,1.39-.15.12-.3.18-.45,0s-.07-.29.12-.45Z"/><path d="M2.9,10.57c.52.43,1,.83,1.49,1.22l.09.08a.27.27,0,0,1,.06.39.27.27,0,0,1-.38,0l-.25-.21L2.39,10.85c-.24-.2-.25-.35,0-.55l1.7-1.39c.18-.15.35-.15.46,0s.06.3-.11.44Z"/><path d="M4.75,14.93H2.69c-.19,0-.35,0-.35-.27s.16-.27.35-.27H6.84c.24,0,.37.11.36.28s-.17.26-.35.26Z"/><path d="M6.77,8.76c-.12.45-.22.85-.32,1.24-.21.76-.41,1.51-.61,2.27,0,0,0,.08,0,.11s-.15.26-.33.21-.22-.18-.18-.34c.09-.37.19-.74.29-1.11l.6-2.25c0-.06,0-.14.06-.17s.2-.18.29-.17S6.7,8.7,6.77,8.76Z"/><path d="M4.16,16.89H2.67c-.19,0-.33-.06-.33-.27s.14-.27.33-.27h3c.19,0,.33.07.34.28s-.12.26-.36.26Z"/><path d="M7.36,7H5.94c-.23,0-.37-.11-.36-.28s.13-.27.36-.27H8.79c.19,0,.34,0,.37.26S9,7,8.78,7Z"/><path d="M3.37,7h-.7c-.18,0-.33-.06-.33-.27s.13-.28.32-.28H4.13c.19,0,.33.07.33.28S4.31,7,4.12,7Z"/><path d="M13.72,14.4h.73c.18,0,.33.07.32.28s-.14.26-.32.26H13c-.18,0-.3-.06-.31-.26s.13-.27.31-.27Z"/><path d="M9.24,14.93H8.5c-.18,0-.31-.06-.31-.26s.13-.27.31-.27H10c.18,0,.31.08.3.28s-.13.25-.3.25Z"/><path d="M20.88,16.89h-.65a.27.27,0,1,1,0-.53h1.36a.25.25,0,0,1,.27.28c0,.17-.12.26-.3.26Z"/><path d="M17.64,16.89H17a.24.24,0,0,1-.28-.25.24.24,0,0,1,.25-.27c.47,0,.95,0,1.42,0a.22.22,0,0,1,.23.26.24.24,0,0,1-.27.26Z"/></svg>