<svg id="Layer_1" data-name="Layer 1" xmlns="http://www.w3.org/2000/svg" viewBox="0 0 24 24"><path d="M23.93,21l-.41.2-4.2,2.43a.32.32,0,0,1-.39,0Q17,22.47,15,21.35l-.25-.15.35-.61.73.42,3.09,1.79a.31.31,0,0,0,.38,0l3.76-2.17a.28.28,0,0,0,.16-.29V16a.32.32,0,0,0-.18-.31l-3.4-2c-.07,0-.13-.08-.22-.13l.35-.6,4.15,2.39Z"/><path d="M14,7.38l.6-.35c.22.37.43.73.63,1.1a.23.23,0,0,0,.27.14,1.26,1.26,0,0,1,1.26.61q.21.34.39.69A1.27,1.27,0,0,1,17,11c-.07.09-.13.17,0,.25a.39.39,0,0,0,.23.09,1.21,1.21,0,0,1,1.12.43A5.78,5.78,0,0,1,19,12.87a1.12,1.12,0,0,1-.2,1.17.23.23,0,0,0,0,.31c.21.36.42.72.63,1.1l-.61.36c-.2-.37-.41-.72-.61-1.07a.29.29,0,0,0-.32-.19,1.26,1.26,0,0,1-1.28-.7c-.11-.19-.23-.38-.34-.58a1.33,1.33,0,0,1,.09-1.43.32.32,0,0,0,0-.25.29.29,0,0,0-.24-.09,1.32,1.32,0,0,1-1.3-.69l-.33-.59a1.28,1.28,0,0,1,.1-1.46.2.2,0,0,0,0-.26C14.38,8.14,14.17,7.77,14,7.38Zm2.56,3A1.47,1.47,0,0,0,15.7,9l.17.34-.6.34-.2-.32a1.39,1.39,0,0,0,.81,1.41l-.17-.32.6-.34Zm.3,2a1.43,1.43,0,0,0,.81,1.42l-.16-.33.59-.34.21.31c.12-.46-.4-1.36-.81-1.4l.16.32-.6.35Z"/><path d="M17,18.77v.71H15.93a.45.45,0,0,0-.53.29,1.12,1.12,0,0,1-1,.65c-.31,0-.61,0-.91,0a1.29,1.29,0,0,1-1.2-.93.27.27,0,0,0-.36.18,1.16,1.16,0,0,1-1,.74,6.2,6.2,0,0,1-1.14,0,1.19,1.19,0,0,1-1-.76.23.23,0,0,0-.25-.17c-.42,0-.83,0-1.27,0v-.68H8.75a1.38,1.38,0,0,1,1.53-1c.21,0,.43,0,.65,0a1.3,1.3,0,0,1,1,.77.32.32,0,0,0,.2.16.26.26,0,0,0,.18-.15,1.32,1.32,0,0,1,1.23-.81,5.62,5.62,0,0,1,.92,0,1.18,1.18,0,0,1,1,.76.22.22,0,0,0,.26.16Zm-2.27,0a1.4,1.4,0,0,0-1.61,0l.34,0v.68l-.36,0a1.46,1.46,0,0,0,1.63,0l-.36,0v-.68Zm-5.14.74a1.41,1.41,0,0,0,1.62,0l-.38,0V18.8l.38,0a1.41,1.41,0,0,0-1.62,0l.34,0v.7Z"/><path d="M5.29,15.8l-.61-.35c.21-.36.41-.72.62-1.07a.29.29,0,0,0,0-.37,1.23,1.23,0,0,1-.1-1.34,7.89,7.89,0,0,1,.43-.74,1.26,1.26,0,0,1,1.27-.6.24.24,0,0,0,.2-.08.29.29,0,0,0,0-.24A1.31,1.31,0,0,1,7,9.49c.12-.2.23-.41.35-.6A1.26,1.26,0,0,1,8.6,8.27a.23.23,0,0,0,.27-.14c.2-.36.41-.72.63-1.1l.61.35c-.21.36-.4.72-.61,1.07a.26.26,0,0,0,0,.36,1.26,1.26,0,0,1,.09,1.36,7.69,7.69,0,0,1-.39.69A1.26,1.26,0,0,1,8,11.49c-.11,0-.26-.05-.29.11a.48.48,0,0,0,.08.28,1.29,1.29,0,0,1,.09,1.34c-.11.22-.24.43-.37.65a1.26,1.26,0,0,1-1.27.68.31.31,0,0,0-.33.18C5.71,15.08,5.51,15.43,5.29,15.8ZM8.2,9.33,8.37,9c-.47.12-1,1-.8,1.41l.18-.29.6.34-.17.35c.48-.15,1-1.07.81-1.42l-.2.3ZM6.42,13.84a1.39,1.39,0,0,0,.81-1.41L7,12.74l-.6-.35.17-.33c-.43.06-1,1-.8,1.39L6,13.16l.6.35Z"/><path d="M9,20.53l.35.6L7.94,22,5.1,23.6a.32.32,0,0,1-.35,0c-1.49-.87-3-1.72-4.47-2.58a.29.29,0,0,1-.16-.29V15.55a.3.3,0,0,1,.12-.24c1.32-.78,2.65-1.54,4-2.31l.08,0,.35.59L3.82,14,1,15.67A.32.32,0,0,0,.81,16q0,2.16,0,4.32a.3.3,0,0,0,.18.31l3.76,2.17a.29.29,0,0,0,.35,0l3.68-2.12Z"/><path d="M7.93,7.9H7.24c0-.08,0-.16,0-.23V3.35A.31.31,0,0,1,7.4,3L11.84.48a.33.33,0,0,1,.38,0L16.66,3a.28.28,0,0,1,.19.27c0,1.48,0,3,0,4.44,0,0,0,.08,0,.13h-.71V3.77A.32.32,0,0,0,16,3.44C14.7,2.73,13.46,2,12.23,1.29a.32.32,0,0,0-.38,0L8.09,3.46a.27.27,0,0,0-.16.29V7.9Z"/><path d="M5.28,22.21H4.57v-.28c0-1.12,0-2.24,0-3.37a.32.32,0,0,0-.19-.32L1.47,16.56l-.25-.15.35-.61,1.28.74,1.89,1.09a.3.3,0,0,0,.37,0l3-1.71.22-.11.35.6-.57.33c-.85.49-1.7,1-2.56,1.47a.4.4,0,0,0-.23.39c0,1.11,0,2.22,0,3.33Z"/><path d="M8.33,4.19l.36-.61c1,.58,2,1.13,3,1.72a.64.64,0,0,0,.77,0c1-.59,2-1.15,3-1.73l.35.61-.22.13c-1,.56-1.94,1.13-2.91,1.68a.36.36,0,0,0-.22.36c0,1.11,0,2.23,0,3.35V10h-.7c0-.09,0-.18,0-.27,0-1.12,0-2.23,0-3.35A.37.37,0,0,0,11.47,6Z"/><path d="M19.47,22.22h-.7V18.57a.3.3,0,0,0-.18-.3l-2.95-1.71-.22-.13.35-.6L16,16c1,.56,2,1.12,2.93,1.7a.36.36,0,0,0,.4,0c1-.57,1.92-1.12,2.89-1.68l.25-.14.35.61-1.09.63c-.69.4-1.37.8-2.07,1.19a.34.34,0,0,0-.19.35c0,1.1,0,2.21,0,3.32Z"/><path d="M13.61,9.75l.36.61c-.48.27-1,.51-1.39.81a.81.81,0,0,1-1.09,0c-.43-.3-.91-.54-1.39-.81l.35-.61a13.71,13.71,0,0,1,1.19.69.61.61,0,0,0,.8,0C12.81,10.18,13.21,10,13.61,9.75Z"/><path d="M7.85,14.28l1.78,1a.26.26,0,0,1,.1.19c0,.61,0,1.22,0,1.85H9v-.6a2.16,2.16,0,0,0,0-1c-.14-.24-.51-.34-.79-.5l-.68-.4Z"/><path d="M14.31,17.28V15.5a.2.2,0,0,1,.09-.15l1.82-1.06.35.61c-.44.26-.87.52-1.31.76a.4.4,0,0,0-.25.43c0,.39,0,.78,0,1.19Z"/><path d="M4.18,21.1l-.35.61L1.4,20.31a.27.27,0,0,1-.11-.19,5.71,5.71,0,0,1,0-.59H2c-.1.3.14.39.34.5Z"/><path d="M14.34,3.05l-.35.6-1.74-1a1.5,1.5,0,0,0-.36-.11l-.05.07L11.5,2A4.29,4.29,0,0,1,12,1.77a.17.17,0,0,1,.17,0Z"/><path d="M20.46,21.6,20.11,21c.6-.34,1.19-.68,1.77-1a1.29,1.29,0,0,0,.24-.23l0-.06h.68c0,.18,0,.35,0,.52a.24.24,0,0,1-.07.13Z"/><path d="M2,17.88H1.29v-.69H2Z"/><path d="M1.29,19v-.68H2V19Z"/><path d="M10.49,2.61l.61-.36.36.61-.61.36Z"/><path d="M10.45,3.44l-.61.36-.35-.61.6-.35Z"/><path d="M22.75,17.35V18h-.67v-.68Z"/><path d="M22.08,18.5h.67v.69h-.67Z"/></svg>