<svg id="Layer_1" data-name="Layer 1" xmlns="http://www.w3.org/2000/svg" viewBox="0 0 24 24"><defs><style>.cls-1{fill:#fff;}</style></defs><path d="M0,4.92a.6.6,0,0,1,.62-.35h2.5V4.31c0-.77,0-1.53,0-2.29A.48.48,0,0,1,4,1.67c.38.38.76.75,1.14,1.14a.2.2,0,0,0,.29,0A10.27,10.27,0,0,1,9.18,1.58,10.65,10.65,0,0,1,20.33,7.51a.77.77,0,0,1,.08.48.54.54,0,0,1-.36.3.68.68,0,0,1-.44-.17c-.07,0-.1-.17-.15-.26a9.57,9.57,0,0,0-5.92-5,9.45,9.45,0,0,0-7.48.75l0,0,.13.15L7.43,5.06a.81.81,0,0,1,.27.64c0,.84,0,1.67,0,2.51a.53.53,0,0,0,.17.41c.87.86,1.73,1.72,2.59,2.59a1.06,1.06,0,0,1,.19.23.44.44,0,0,1-.07.55.45.45,0,0,1-.56.07,1.37,1.37,0,0,1-.23-.19C8.93,11,8.09,10.18,7.25,9.33a.67.67,0,0,0-.51-.22c-.53,0-1.06,0-1.58,0a3.5,3.5,0,0,1-1.22-.07A3.61,3.61,0,0,1,3,8.22L2.19,7.4a9.53,9.53,0,0,0,0,9.38,9.64,9.64,0,0,0,8.39,5.13V20.1c-.42-.06-.84-.1-1.26-.17a7.45,7.45,0,0,1-3.06-1.24A7.91,7.91,0,0,1,2.94,10.6a.47.47,0,0,1,.54-.41.45.45,0,0,1,.38.52c0,.52-.13,1-.13,1.55A7,7,0,0,0,9,18.9a3.06,3.06,0,0,0,.41.1l1.21.15c0-.1,0-.18,0-.26,0-.65,0-1.29,0-1.94a.77.77,0,0,0-.12-.36,1.8,1.8,0,0,1-.33-1.09V12.89c0-.44.17-.6.61-.61h3.38c0-.34,0-.67,0-1a.81.81,0,0,1,.66-.79,1.51,1.51,0,0,1,.3,0h2.43a8.86,8.86,0,0,0-.29-.87,6.89,6.89,0,0,0-5.5-4.36,6.62,6.62,0,0,0-2.22,0A.46.46,0,0,1,9,5,.41.41,0,0,1,9,4.5a.73.73,0,0,1,.34-.17,7.84,7.84,0,0,1,7.48,2.81,7.67,7.67,0,0,1,1.61,3.33H19a.87.87,0,0,1,.93.93v.88h3.36c.44,0,.6.16.6.59v2.68a1.69,1.69,0,0,1-.35,1.08.62.62,0,0,0-.08.33c0,1.55,0,3.09,0,4.64a1.09,1.09,0,0,1-.82,1.19,1.23,1.23,0,0,1-.33,0H10.69A10.64,10.64,0,0,1,.36,14.74c-.13-.53-.18-1.08-.27-1.63,0-.07,0-.15,0-.22V11.35a.28.28,0,0,0,0-.13A10.4,10.4,0,0,1,1.43,6.89a.22.22,0,0,0-.05-.31L0,5.2ZM22.51,19.65V17.28H18.43c-.28.82-.69,1.21-1.35,1.2a1.87,1.87,0,0,1-.8-.21,1.36,1.36,0,0,1-.65-1H11.52v4.24c0,.36,0,.37.36.37H22.16c.06,0,.13,0,.18,0s.17-.1.17-.16c0-.37,0-.74,0-1.14H19.64a1.47,1.47,0,0,1-.21,0A.47.47,0,0,1,19,20.1a.45.45,0,0,1,.43-.44h3.07ZM23,13.23H11.08v2.25c0,.59.27.86.87.86h3.67c0-.14,0-.25,0-.37,0-.38.21-.6.56-.61h1.68a.53.53,0,0,1,.54.55c0,.13,0,.27,0,.42,1.32,0,2.61,0,3.9,0a.68.68,0,0,0,.66-.69C23,14.84,23,14,23,13.23ZM6.76,7.52c0-.61,0-1.15,0-1.68a.41.41,0,0,0-.11-.23L4.25,3.22,4.1,3.1c0,.57,0,1.1,0,1.64A.37.37,0,0,0,4.22,5l1.94,2Zm-5-2,0,.06c.67.67,1.37,1.3,2,2a1.57,1.57,0,0,0,1.49.61,6.3,6.3,0,0,1,.87,0l0-.06L3.5,5.59a.26.26,0,0,0-.16-.07ZM19,11.42H15.07v.85H19ZM16.58,16.3c0,.29,0,.55,0,.82a.44.44,0,0,0,.43.43.43.43,0,0,0,.45-.38,8.42,8.42,0,0,0,0-.87Z"/><path class="cls-1" d="M0,5.2,1.38,6.58a.22.22,0,0,1,.05.31A10.4,10.4,0,0,0,.08,11.22a.28.28,0,0,1,0,.13Z"/><path d="M5.91,12.12c.09-.47.16-.94.28-1.4a.47.47,0,0,1,.61-.39.49.49,0,0,1,.28.65,3.82,3.82,0,0,0,.25,2.91,3.49,3.49,0,0,0,1.14,1.33,3.81,3.81,0,0,1,.32.24.46.46,0,0,1,.08.64.45.45,0,0,1-.64.1A4.85,4.85,0,0,1,6.9,15,4.8,4.8,0,0,1,6,12.13Z"/><path d="M10.74,7.39A4.75,4.75,0,0,1,13.9,8.61a.48.48,0,0,1,.11.71.47.47,0,0,1-.72,0,3.91,3.91,0,0,0-2.22-1,3.84,3.84,0,0,0-1.58.19.55.55,0,0,1-.59-.07.47.47,0,0,1,.22-.79A4.26,4.26,0,0,1,10.74,7.39Z"/><path d="M20.65,9.25a.46.46,0,0,1,.45.48.47.47,0,0,1-.46.45.45.45,0,0,1-.46-.49A.44.44,0,0,1,20.65,9.25Z"/><path d="M16.73,20.11a.45.45,0,0,1,.46-.46.47.47,0,1,1,0,.93A.46.46,0,0,1,16.73,20.11Z"/></svg>