<svg id="Layer_1" data-name="Layer 1" xmlns="http://www.w3.org/2000/svg" viewBox="0 0 24 24"><defs><style>.cls-1{fill:#fff;}</style></defs><path d="M7,9.22H3.31a3.28,3.28,0,0,1-.63-.05,2.28,2.28,0,0,1,.4-4.51H3.5c0-.25.09-.49.16-.73a4.18,4.18,0,0,1,6.85-2,.25.25,0,0,0,.36,0,2.64,2.64,0,0,1,4,1.82.34.34,0,0,0,.27.31,4,4,0,0,1,1.51.9c.08.08.14.12.26,0A2.53,2.53,0,0,1,19.65,5,2.58,2.58,0,0,1,21,7.48v.2a7.35,7.35,0,0,1,.82.07,2.28,2.28,0,0,1-.42,4.51H19a4.9,4.9,0,0,1,.11.65c0,.31,0,.63,0,.95,0,.55,0,.55-.51.75l.06.12c.16.29.15.39-.08.63l-.91.91c-.26.26-.33.26-.78,0,0,.51-.37.59-.8.51v4.58h.31a.36.36,0,0,1,.38.43,8.33,8.33,0,0,1-.2,1.09,1.11,1.11,0,0,1-1.1.75H2.25a1.13,1.13,0,0,1-1.21-1C1,22.41,1,22.2.93,22c-.09-.46,0-.61.5-.61h.18V14.26A1.14,1.14,0,0,1,2.85,13h9.34l.17-.76H9.28A2.26,2.26,0,0,1,7,9.35.66.66,0,0,1,7,9.22Zm5.22,4.56H2.93c-.45,0-.56.12-.56.56v7H7.49c.3,0,.54,0,.59.38H9.55c.14-.33.2-.37.56-.37h5.16V16.81c-.43.06-.77,0-.8-.52-.5.26-.5.26-.88-.12l-.69-.69c-.39-.39-.39-.39-.14-.9C12.24,14.56,12.19,14.2,12.25,13.78Zm4.61-3.28c.49-.25.49-.25.9.16.24.24.48.49.74.73a.31.31,0,0,0,.22.11c.89,0,1.78,0,2.68,0a1.51,1.51,0,0,0,1.47-1.43A1.5,1.5,0,0,0,21.61,8.5a8.28,8.28,0,0,0-1,0c-.46,0-.6-.18-.48-.62a1.87,1.87,0,0,0-.79-2.11,1.9,1.9,0,0,0-2.25.14c-.36.3-.47.29-.78,0a3.33,3.33,0,0,0-2.68-1.15A3.42,3.42,0,0,0,10.34,8c0,.36-.13.46-.5.47a6.46,6.46,0,0,0-1.08.08,1.49,1.49,0,0,0-1.07,1.6A1.53,1.53,0,0,0,9.21,11.5h3.34a.51.51,0,0,0,.29-.13c.3-.28.58-.58.87-.87a.4.4,0,0,1,.59-.08l.16.08a1.55,1.55,0,0,1,.07-.23.37.37,0,0,1,.38-.29h1.5a.38.38,0,0,1,.38.29A2,2,0,0,0,16.86,10.5ZM14.08,3.89A1.89,1.89,0,0,0,11,2.84c-.34.29-.47.28-.77,0a3.3,3.3,0,0,0-2.7-1.15A3.4,3.4,0,0,0,4.27,5c0,.35-.13.45-.49.46A6.46,6.46,0,0,0,2.7,5.5,1.48,1.48,0,0,0,1.62,7.08,1.51,1.51,0,0,0,3.14,8.46h4.2a.5.5,0,0,0,.28-.12,2.15,2.15,0,0,1,1.17-.59c.26,0,.53,0,.79-.07C10.24,5,11.38,4.07,14.08,3.89Zm4.22,10v-.91c-.85-.24-.85-.24-.45-1.13l-.5-.48-.13-.11c-.27.07-.45.38-.77.23s-.22-.48-.35-.7h-.89c-.12.25-.05.58-.35.71s-.5-.18-.74-.24l-.64.64c.07.25.38.43.23.75s-.48.22-.7.35v.89c.25.12.58,0,.71.35s-.18.5-.24.74l.64.64c.25-.07.43-.38.75-.24s.21.49.34.7h.9c.12-.24,0-.57.35-.7s.49.17.73.23l.65-.63C17.37,14.21,17.47,14.05,18.3,13.85ZM1.76,22.15c.05.63.1.75.73.75H15.25c.08,0,.17,0,.23,0s.27-.14.32-.24a1.65,1.65,0,0,0,.11-.51H10.36c-.06.32-.28.38-.57.38-.65,0-1.3,0-1.95,0-.37,0-.43,0-.56-.36Z"/><path d="M21,13h.76v4.49a1.88,1.88,0,0,1-2,1.95c-1,0-1.93,0-2.89,0h-.06v-.74h2.9A1.16,1.16,0,0,0,21,17.46c0-1.39,0-2.77,0-4.15Z"/><path d="M7.67,17.94H6.94v-.73h.73Z"/><path d="M9.19,18H8.46v-.74h.73Z"/><path d="M10.71,18H10v-.74h.73Z"/><path d="M15.66,11.88a1.52,1.52,0,1,1-1.52,1.52A1.51,1.51,0,0,1,15.66,11.88Zm0,.76a.76.76,0,1,0,.77.75A.79.79,0,0,0,15.65,12.64Z"/><path class="cls-1" d="M15.65,12.64a.76.76,0,1,1-.75.76A.78.78,0,0,1,15.65,12.64Z"/></svg>