<svg id="Layer_1" data-name="Layer 1" xmlns="http://www.w3.org/2000/svg" viewBox="0 0 24 24"><defs><style>.cls-1{fill:#fff;}</style></defs><path d="M24,0V24H4.08v-1.4H7.77V17.33H0V0ZM1.42,1.43V12.17H10.6V5.73h12V1.43ZM16,22.56V12.74h6.54V7.14H12V22.56Zm6.54-8.39H17.46v8.39h5.12Zm-12-.57H1.42v2.32h9.16Zm0,9V17.35H9.2v5.21Z"/><path class="cls-1" d="M10.58,13.6v2.32H1.42V13.6Z"/><path d="M6.09,5c0,.44,0,.86,0,1.28a.32.32,0,0,1-.14.21c-.28.19-.57.37-.89.57.32.19.61.35.89.53.06,0,.14.12.14.18,0,.45,0,.9,0,1.38L5.9,9.09,3.25,7.53a.57.57,0,0,1,0-.78L6,5.06Z"/><path d="M7,3.88h1.3V6.79H7Z"/><path d="M8.29,8.9H7V7.62H8.29Z"/><path d="M9.16,7.62h1V8.89h-1Z"/><path d="M14.07,12.64c.12.52,0,.92-.51,1.07.2.16.44.26.52.44a1.78,1.78,0,0,1,0,.7l-.29-.15L12.62,14a.31.31,0,0,1,0-.46l.16-.09Z"/><path d="M18,8.77a.7.7,0,1,1-.69-.7A.69.69,0,0,1,18,8.77Z"/><path d="M15.27,13.58h-.68V12h.68Z"/><path d="M15.27,14c0,.05,0,.08,0,.12v.55h-.7V14Z"/><path d="M20.72,20.93a.69.69,0,0,1-.71.7.7.7,0,1,1,.71-.7Z"/></svg>