<svg id="Layer_1" data-name="Layer 1" xmlns="http://www.w3.org/2000/svg" viewBox="0 0 24 24"><path d="M12,1.29h7.75c.49,0,.68.19.68.68v12.5c0,.48-.2.68-.68.68H4.27c-.48,0-.68-.2-.68-.68V2c0-.48.2-.68.69-.68ZM4,3.92V14.4c0,.34,0,.37.37.37H19.7c.35,0,.38,0,.38-.37V4.15c0-.08,0-.15,0-.23Zm16.11-.39V2.05c0-.37,0-.39-.4-.39H4.37a.49.49,0,0,0-.21,0c-.07,0-.18.11-.18.17C4,2.4,4,3,4,3.53Z"/><path d="M3,4.28v.38H2.37a.58.58,0,0,0-.65.65V17.86c0,.45.23.66.72.66H21.59c.53,0,.74-.2.74-.73V5.38c0-.52-.21-.72-.72-.72h-.74V4.31a8.52,8.52,0,0,1,1.13,0,.87.87,0,0,1,.7.9V18a.92.92,0,0,1-1,.93H2.31a.92.92,0,0,1-1-.95V5.23a.92.92,0,0,1,.94-1Z"/><path d="M20.86,5.41V5a4.68,4.68,0,0,1,.65,0,.53.53,0,0,1,.44.48V16c0,.5-.19.7-.69.7H2.79c-.5,0-.69-.2-.69-.7,0-3.36,0-6.72,0-10.09,0-.71.31-.9.93-.81,0,0,0,.11,0,.17v.15L3,5.4c-.51,0-.5,0-.5.53v10c0,.36,0,.39.38.39H21.21c.34,0,.37,0,.37-.37V5.83c0-.41,0-.42-.42-.42Z"/><path d="M10,20.76h4l-.2-1.27.37-.06c.06.38.14.76.19,1.15,0,.17.09.2.24.19h1.12a.94.94,0,0,1,1,.95c0,.74-.16.93-.91.93-2.59,0-5.18,0-7.77,0-.49,0-.69-.2-.69-.7a2.07,2.07,0,0,1,0-.5.91.91,0,0,1,.89-.67H9.44c.13,0,.19,0,.2-.18,0-.37.13-.73.19-1.1,0,0,0,0,0-.06l.35.05Zm2,1.51h4c.14,0,.27,0,.31-.18a.7.7,0,0,0-.75-.95H8.46c-.55,0-.75.2-.75.77,0,.32,0,.36.37.36Z"/><path d="M20.64,18.14h-.75a.55.55,0,0,1-.56-.56.56.56,0,0,1,.56-.56h1.5a.55.55,0,0,1,.56.56.55.55,0,0,1-.56.56Zm0-.37a5.77,5.77,0,0,0,.72,0c.08,0,.15-.11.22-.18s-.15-.17-.23-.18h-1.4c-.08,0-.15.11-.23.17.08.07.15.18.24.19A5.12,5.12,0,0,0,20.63,17.77Z"/><path d="M18.39,18.14a.56.56,0,1,1,0-1.12.55.55,0,0,1,.55.57A.54.54,0,0,1,18.39,18.14Zm.26-.55c-.11-.09-.19-.19-.24-.18s-.14.12-.2.18.12.16.18.17S18.53,17.67,18.65,17.59Z"/><path d="M5.84,9.9c0-.92,0-1.84,0-2.76a.82.82,0,0,1,.08-.35c.22-.47.46-.92.68-1.39A.59.59,0,0,1,7.16,5a.6.6,0,0,1,.53.38c.24.47.47.94.7,1.41a.78.78,0,0,1,.07.31v5.54a.92.92,0,0,1-1,1H6.82a.93.93,0,0,1-1-1Zm.39-2.7V11H7V7.2Zm1.13,0V11h.71V7.2Zm.73,5H6.22c0,.18,0,.36,0,.53a.55.55,0,0,0,.58.57h.7a.57.57,0,0,0,.59-.57C8.1,12.53,8.09,12.36,8.09,12.17Zm0-.75H6.23v.35H8.08ZM6.38,6.8H7.93c0-.25-.16-.4-.46-.36a4.7,4.7,0,0,1-.65,0C6.48,6.44,6.48,6.44,6.38,6.8Zm1.2-.75c-.09-.19-.17-.36-.26-.52a.18.18,0,0,0-.33,0c-.1.17-.17.34-.27.53Z"/><path d="M10.33,11.77a3.57,3.57,0,0,1,7.13,0s0,0,0,0c.58.05.7.19.7.78,0,.16,0,.32,0,.49a.55.55,0,0,1-.6.61H10.25A.58.58,0,0,1,9.59,13v-.56c0-.44.19-.64.64-.65Zm6.75,1.51h.5c.18,0,.25-.09.25-.27v-.44c0-.4,0-.42-.42-.42s-.31,0-.33-.32a3.18,3.18,0,0,0-6.36,0c0,.24-.1.33-.33.3h-.18a.22.22,0,0,0-.25.25v.23c0,.68-.09.66.71.64l.05,0v-.5h.37v.53h1.13v-.53h.37v.53h1.13v-.53h.37v.53h1.12v-.54h.37v.54h1.14v-.53h.36Z"/><path d="M14.09,6.7a1.64,1.64,0,0,1,2.29-1.52A5.92,5.92,0,0,1,18,6.3a.54.54,0,0,1,0,.83,6.45,6.45,0,0,1-1.65,1.13A1.65,1.65,0,0,1,14.09,6.7Zm.37,0a1.25,1.25,0,0,0,1.8,1.16c.5-.29,1-.64,1.44-1,.17-.12.17-.26,0-.38-.47-.33-.94-.69-1.44-1A1.26,1.26,0,0,0,14.46,6.72Z"/><path d="M13.51,5.79v.37H10.59A.55.55,0,0,0,10,7a.6.6,0,0,0,.59.3h2.88v.37H10.57a.94.94,0,1,1,0-1.87h2.95Z"/><path d="M10.52,2.42v.35H4.92V2.42Z"/><path d="M16.14,2a.56.56,0,0,1,.57.55.57.57,0,0,1-1.13,0A.56.56,0,0,1,16.14,2Zm.26.55c-.12-.08-.2-.18-.25-.16s-.13.12-.19.19.13.15.2.15S16.29,2.68,16.4,2.59Z"/><path d="M17.64,3.16a.56.56,0,0,1-.56-.56A.55.55,0,0,1,17.64,2a.55.55,0,0,1,.56.56A.55.55,0,0,1,17.64,3.16Zm.26-.55c-.11-.09-.18-.19-.24-.18s-.13.11-.2.17.11.16.18.17S17.78,2.69,17.9,2.61Z"/><path d="M19.7,2.59a.56.56,0,1,1-1.12,0A.55.55,0,0,1,19.14,2,.54.54,0,0,1,19.7,2.59Zm-.3,0c-.11-.09-.19-.19-.24-.18s-.14.11-.2.17.12.16.18.17S19.28,2.69,19.4,2.61Z"/><path d="M13.9,12.15H12.12c-.21,0-.29-.08-.28-.29a2.06,2.06,0,0,1,4.07-.37c.13.62.1.66-.52.66Zm1.65-.38a1.67,1.67,0,0,0-1.72-1.49,1.62,1.62,0,0,0-1.57,1.49Z"/></svg>