<svg id="Layer_1" data-name="Layer 1" xmlns="http://www.w3.org/2000/svg" viewBox="0 0 24 24"><path d="M8.23,24A9.47,9.47,0,0,1,7,23.43a6.23,6.23,0,0,1-1.53-1.5,15.15,15.15,0,0,1-2.88-6,11.9,11.9,0,0,1-.31-3.66,7,7,0,0,1,2.39-5A5.75,5.75,0,0,1,8.52,5.8a5.84,5.84,0,0,1,1.88.43l1.11.42a1.66,1.66,0,0,0,1.2,0,22.1,22.1,0,0,1,2.46-.81,5.6,5.6,0,0,1,3.49.4,5.26,5.26,0,0,1,2.28,1.81c.3.42.26.63-.16.92a4.67,4.67,0,0,0-2,2.86,4.44,4.44,0,0,0,1.78,4.65,6.44,6.44,0,0,0,.8.47.52.52,0,0,1,.31.73A12.21,12.21,0,0,1,20,21a20,20,0,0,1-1.46,1.84,3.28,3.28,0,0,1-1.9,1.07,3.87,3.87,0,0,1-2.1-.27,10.69,10.69,0,0,0-1.34-.48,3.87,3.87,0,0,0-2.44.24c-.48.19-1,.34-1.45.51C9.22,24,9.1,24,9,24ZM20.7,17.71A5.52,5.52,0,0,1,20,8.38l-.08-.11a4.83,4.83,0,0,0-4.62-1.46A16.09,16.09,0,0,0,13,7.59a2.34,2.34,0,0,1-1.67,0l-1.22-.46a4.43,4.43,0,0,0-4.46.58,5.83,5.83,0,0,0-2.37,4.38A11,11,0,0,0,3.55,16a13.89,13.89,0,0,0,3.37,6.15,2.25,2.25,0,0,0,2.48.76c.38-.13.74-.29,1.11-.43a4.62,4.62,0,0,1,2.72-.3,13.18,13.18,0,0,1,1.61.53,3.15,3.15,0,0,0,1.48.28,2.43,2.43,0,0,0,1.56-.81,12.61,12.61,0,0,0,2-2.69C20.15,18.92,20.41,18.31,20.7,17.71Z"/><path d="M16.77,1a5.24,5.24,0,0,1-3.21,4.74,3.64,3.64,0,0,1-1.5.28c-.41,0-.57-.18-.6-.58A5.26,5.26,0,0,1,15.75.09a2.63,2.63,0,0,1,.49,0,.48.48,0,0,1,.51.47C16.76.66,16.76.8,16.77,1Zm-1,.12A4.29,4.29,0,0,0,12.43,5,4.15,4.15,0,0,0,15.79,1.07Z"/><path d="M4.86,12c0,.58-.06,1.17,0,1.75a9.17,9.17,0,0,0,.74,3.39c.33.78.75,1.52,1.15,2.27.2.39.08.75-.3.81a.5.5,0,0,1-.5-.27A13,13,0,0,1,4.17,16a10.25,10.25,0,0,1-.28-3.66,4,4,0,0,1,.08-.5.47.47,0,0,1,.52-.37A.43.43,0,0,1,4.86,12Z"/><path d="M5.13,9.47a.46.46,0,0,1,.44.6,1.91,1.91,0,0,1-.23.45.44.44,0,0,1-.55.18.47.47,0,0,1-.3-.5A.79.79,0,0,1,5.13,9.47Z"/></svg>