<svg xmlns="http://www.w3.org/2000/svg" viewBox="0 0 23.86 23.86"><g id="Layer_2" data-name="Layer 2"><g id="Layer_1-2" data-name="Layer 1"><path d="M22.55,0a3.87,3.87,0,0,1,.65.31,1.56,1.56,0,0,1,.66,1.32V14.09a1.6,1.6,0,0,1-1.75,1.75H17v1.34c0,.43-.17.61-.6.61s-1.12,0-1.68,0c-.41,0-.59-.19-.6-.6V15.86H11.82c0,.09.09.18.14.26.28.51.27.57-.14,1a4.84,4.84,0,0,0-1.25,2.23h.56c.34,0,.54.16.56.43s-.15.45-.52.52v2.9a1.85,1.85,0,0,1,0,.23.47.47,0,0,1-.46.44.46.46,0,0,1-.46-.44,1.06,1.06,0,0,1,0-.25V20.29H6.74v3c0,.38-.19.59-.49.59s-.46-.23-.46-.59v-3l-.14,0a.47.47,0,0,1-.38-.51.46.46,0,0,1,.45-.42c.22,0,.43,0,.67,0a4.84,4.84,0,0,0-1.23-2.21L5,17a.48.48,0,0,1-.1-.7c.44-.81.89-1.62,1.34-2.43.58-1,1.16-2.1,1.73-3.16.11-.2.24-.37.49-.37s.38.17.49.37l2.22,4a.31.31,0,0,0,.32.19H15A6.55,6.55,0,0,0,9.92,9v.27a.47.47,0,0,1-.5.52q-.93,0-1.86,0A.48.48,0,0,1,7,9.24V9a6.57,6.57,0,0,0-5.11,5.93h.39c.35,0,.55.17.55.52,0,.61,0,1.22,0,1.84a.48.48,0,0,1-.55.52c-.59,0-1.18,0-1.77,0A.62.62,0,0,1,0,17.47V15.24c.21-.44.63-.3,1-.33A7.66,7.66,0,0,1,4.81,8.8H2.88v.29c0,.52-.16.69-.68.69H.69A.7.7,0,0,1,0,9.46V7.22a.63.63,0,0,1,.63-.33c.56,0,1.12,0,1.68,0,.38,0,.55.17.57.55v.4H7c.09-.3.08-.64.25-.8s.52-.15.81-.22V6.61C8,5,8,3.3,8,1.65A1.56,1.56,0,0,1,8.68.31,3.44,3.44,0,0,1,9.32,0Zm-1.3,14.91h.85c.58,0,.83-.25.83-.82V1.75c0-.57-.26-.82-.83-.82H18.27V4.82c0,.42-.17.58-.6.58H14.2c-.44,0-.59-.16-.59-.6V.93H9.75c-.55,0-.8.26-.8.82V6.83c.3.07.64.06.8.23s.17.51.24.79h4.09c0-.15,0-.29,0-.43a.49.49,0,0,1,.55-.52h1.79a.47.47,0,0,1,.53.53V9.22a.5.5,0,0,1-.54.56h-1.8a.51.51,0,0,1-.54-.54V8.82h-1.9A7.61,7.61,0,0,1,16,14.9h4.33V12c0-.33.19-.55.47-.54a.48.48,0,0,1,.46.54v2.9ZM8,12.69H8l-2,3.7c-.08.13,0,.18.06.25a5.81,5.81,0,0,1,1.22,2.13c.06.19.11.38.16.56H9.54a15.87,15.87,0,0,1,.62-1.51,14.13,14.13,0,0,1,.91-1.37L9,12.68H9v.22c0,.54,0,1.07,0,1.61a.45.45,0,0,1-.53.49.46.46,0,0,1-.39-.5C8,13.9,8,13.3,8,12.69Zm6.53-8.23h2.77V.94H14.55ZM8,8.81H9v-1H8Zm-7,0h1v-1h-1Zm14.12-1v1h1v-1Zm-13.15,9v-1H1v1Zm14.1,0v-1h-1v1Z"/></g></g></svg>