<svg id="Layer_1" data-name="Layer 1" xmlns="http://www.w3.org/2000/svg" viewBox="0 0 24 24"><path d="M18.75,0l.4.11A2.3,2.3,0,1,1,18,.05l.15,0Zm.8,2.31a1.1,1.1,0,1,0-1.1,1.11A1.11,1.11,0,0,0,19.55,2.31Z"/><path d="M4.64,24l-.33-.1A2.29,2.29,0,1,1,5.36,24l-.11,0Zm1.42-2.3A1.1,1.1,0,0,0,5,20.59,1.12,1.12,0,1,0,6.06,21.7Z"/><path d="M19,8c0,.51,0,1,0,1.54a4.66,4.66,0,0,1-4.59,4.56.59.59,0,0,1-.67-.57.6.6,0,0,1,.65-.61A3.48,3.48,0,0,0,17.86,9.4V8l-.16.13L16.64,9.17a.62.62,0,0,1-.9.06.59.59,0,0,1,0-.89L18,6.17a.61.61,0,0,1,1,0l2.17,2.17a.59.59,0,0,1,.06.89.61.61,0,0,1-.9-.06L19.08,8Z"/><path d="M9.4,8.93,8.21,10.12a.62.62,0,0,1-.56.22A.57.57,0,0,1,7.18,10a.59.59,0,0,1,.14-.63l1-1a2.8,2.8,0,0,1,.26-.21c-.2-.18-.38-.32-.54-.47L7.34,6.9a.59.59,0,0,1,0-.86.58.58,0,0,1,.85,0c.35.33.68.67,1,1a2.38,2.38,0,0,1,.18.22c.42-.42.81-.8,1.19-1.2a.65.65,0,0,1,.57-.22.57.57,0,0,1,.46.39.55.55,0,0,1-.14.62c-.34.35-.69.69-1,1l-.2.21,1,1a2.83,2.83,0,0,1,.24.25.58.58,0,0,1,0,.83.57.57,0,0,1-.82,0c-.38-.36-.74-.73-1.11-1.1Z"/><path d="M11.42,19.84l1.23-1.24a.59.59,0,0,1,.64-.16.56.56,0,0,1,.38.47.63.63,0,0,1-.22.57l-1.18,1.17c.4.4.79.79,1.19,1.17a.63.63,0,0,1,.21.59.59.59,0,0,1-1,.3c-.36-.34-.69-.69-1-1l-.21-.19q-.57.59-1.14,1.14a.91.91,0,0,1-.4.24.54.54,0,0,1-.61-.28.57.57,0,0,1,.09-.71c.34-.35.7-.7,1.05-1a2.09,2.09,0,0,1,.22-.16L9.42,19.46a.58.58,0,0,1-.21-.56.55.55,0,0,1,.39-.46.62.62,0,0,1,.63.15l1,1A2.92,2.92,0,0,1,11.42,19.84Z"/><path d="M18.47,18.41c-.42.42-.8.81-1.19,1.18a1,1,0,0,1-.39.23.56.56,0,0,1-.61-.29.58.58,0,0,1,.1-.69c.34-.36.69-.7,1-1.05a1.25,1.25,0,0,1,.24-.15c-.44-.44-.84-.82-1.21-1.22a.78.78,0,0,1-.22-.37.55.55,0,0,1,.3-.63.6.6,0,0,1,.69.11c.35.34.69.68,1,1l.21.24.52-.57c.22-.22.44-.45.67-.66a.59.59,0,0,1,.87,0,.6.6,0,0,1-.05.88l-1,1c-.06,0-.11.11-.18.18.39.39.78.76,1.15,1.15a1,1,0,0,1,.23.37.56.56,0,0,1-.28.64.58.58,0,0,1-.71-.1c-.35-.34-.69-.68-1-1C18.59,18.57,18.55,18.5,18.47,18.41Z"/><path d="M10.27,13.54a.59.59,0,0,1-.6.59.59.59,0,1,1,.6-.59Z"/><path d="M12.61,13.53a.58.58,0,0,1-.57.59.56.56,0,0,1-.6-.57.59.59,0,1,1,1.17,0Z"/><path d="M6.8,13.88a.59.59,0,0,1,.61-.58.6.6,0,0,1,.57.6.59.59,0,0,1-1.18,0Z"/><path d="M5,18.19a.6.6,0,0,1-.58-.6A.59.59,0,0,1,5,17a.59.59,0,0,1,.57.61A.6.6,0,0,1,5,18.19Z"/><path d="M6.21,15.39a.6.6,0,0,1-.58.59.62.62,0,0,1-.6-.6.59.59,0,0,1,.61-.58A.58.58,0,0,1,6.21,15.39Z"/></svg>