<svg id="Layer_1" data-name="Layer 1" xmlns="http://www.w3.org/2000/svg" viewBox="0 0 24 24"><defs><style>.cls-1{fill:#fff;}</style></defs><path d="M14.2,18.75H2A1.12,1.12,0,0,1,.75,17.52V2A1.12,1.12,0,0,1,2,.75H22A1.12,1.12,0,0,1,23.2,2V21.3a1.86,1.86,0,0,1-1.94,1.95H16.17a1.86,1.86,0,0,1-2-1.94V18.82S14.21,18.79,14.2,18.75Zm8.24-9.38V4.52H1.5V17.45c0,.44.11.55.55.55H14.22v-.3c0-2.23,0-4.47,0-6.7a2,2,0,0,1,2-2C17.81,9,19.39,9,21,9A2.2,2.2,0,0,1,22.44,9.37Zm0,10.87V12H15v8.22ZM1.5,3.73h21V2.1c0-.5-.1-.6-.6-.6h-20a.38.38,0,0,0-.38.39C1.49,2.5,1.5,3.11,1.5,3.73Zm13.41,7.5h7.55v-.34a1.14,1.14,0,0,0-1.15-1.14H16.12a1,1,0,0,0-1,.59A3.87,3.87,0,0,0,14.91,11.23ZM15,21c-.08,1,.38,1.49,1.35,1.49h4.91A1.16,1.16,0,0,0,22.42,21Z"/><path class="cls-1" d="M1.5,3.73c0-.62,0-1.23,0-1.84a.38.38,0,0,1,.38-.39h20c.5,0,.6.1.6.6V3.73ZM14.79,2.25H8.39a.72.72,0,0,0-.21,0,.34.34,0,0,0-.32.35.36.36,0,0,0,.3.38A1,1,0,0,0,8.4,3h13a.39.39,0,0,0,.33-.37.37.37,0,0,0-.34-.38H14.79ZM2.8,3H3a.38.38,0,1,0,0-.75,3,3,0,0,0-.42,0,.34.34,0,0,0-.32.36A.35.35,0,0,0,2.56,3ZM4.29,3H4.5a.37.37,0,0,0,.36-.38.35.35,0,0,0-.36-.37,3.09,3.09,0,0,0-.43,0,.33.33,0,0,0-.32.35A.37.37,0,0,0,4.08,3Zm1.5,0H6a.36.36,0,0,0,.38-.38A.37.37,0,0,0,6,2.25H5.59a.36.36,0,0,0-.35.37A.37.37,0,0,0,5.58,3Z"/><path d="M7.85,15.75H2.75c-.39,0-.5-.11-.5-.5v-8c0-.37.11-.49.49-.49H13c.38,0,.49.12.49.49v8c0,.35-.12.47-.48.47ZM3,14l.17-.26L6,9.33c.26-.43.56-.43.83,0l2.15,3.45.14.21c.35-.51.69-1,1-1.47s.51-.36.76,0L12.57,14a1.63,1.63,0,0,1,.14.18V7.51H3Zm.3,1H9.42l-3.06-4.9Zm7.18-2.7c-.32.46-.63.89-.92,1.33a.2.2,0,0,0,0,.18,6,6,0,0,1,.38.64A.87.87,0,0,0,11,15a12.79,12.79,0,0,1,1.39,0Z"/><path d="M19.87,13.45c-.09.32-.16.58-.24.83-.41,1.47-.83,2.94-1.25,4.4a.36.36,0,0,1,0,.11c-.08.26-.26.39-.48.32a.4.4,0,0,1-.24-.53c.23-.8.45-1.6.68-2.4l.75-2.62a.91.91,0,0,1,.13-.3.3.3,0,0,1,.41-.1A1.28,1.28,0,0,1,19.87,13.45Z"/><path d="M16.25,16.12l1.07,1.08a1.29,1.29,0,0,1,.17.16.38.38,0,0,1,0,.53.36.36,0,0,1-.52,0l-.76-.76c-.23-.23-.47-.46-.7-.7a.38.38,0,0,1,0-.61c.47-.47.94-1,1.42-1.42a.38.38,0,0,1,.57,0,.39.39,0,0,1,0,.58Z"/><path d="M21.17,16.11,20.08,15a.86.86,0,0,1-.14-.13.38.38,0,0,1,0-.53.36.36,0,0,1,.52,0c.51.49,1,1,1.51,1.51a.35.35,0,0,1,0,.52c-.49.51-1,1-1.5,1.51a.38.38,0,0,1-.52-.55l1-1Z"/><path d="M14.79,2.25h6.58a.37.37,0,0,1,.34.38.39.39,0,0,1-.33.37H8.4a1,1,0,0,1-.24,0,.36.36,0,0,1-.3-.38.34.34,0,0,1,.32-.35.72.72,0,0,1,.21,0Z"/><path d="M2.8,3H2.56a.35.35,0,0,1-.31-.37.34.34,0,0,1,.32-.36,3,3,0,0,1,.42,0A.38.38,0,1,1,3,3Z"/><path d="M4.29,3H4.08a.37.37,0,0,1-.33-.39.33.33,0,0,1,.32-.35,3.09,3.09,0,0,1,.43,0,.35.35,0,0,1,.36.37A.37.37,0,0,1,4.5,3Z"/><path d="M5.79,3H5.58a.37.37,0,0,1-.34-.38.36.36,0,0,1,.35-.37H6a.37.37,0,0,1,.38.37A.36.36,0,0,1,6,3Z"/><path d="M18.7,10.87c-.13,0-.25,0-.38,0a.35.35,0,0,1-.35-.38.35.35,0,0,1,.35-.36c.26,0,.53,0,.79,0a.36.36,0,0,1,.35.37.36.36,0,0,1-.34.37H18.7Z"/><path d="M18.72,21.38h.38a.35.35,0,0,1,.36.37.36.36,0,0,1-.35.37h-.79a.35.35,0,0,1-.35-.36.35.35,0,0,1,.35-.38Z"/><path d="M10.48,9.36a1.13,1.13,0,0,1-2.25,0,1.13,1.13,0,1,1,2.25,0Zm-1.12.39a.4.4,0,0,0,.37-.38.38.38,0,0,0-.75,0A.41.41,0,0,0,9.36,9.75Z"/></svg>