<svg xmlns="http://www.w3.org/2000/svg" viewBox="0 0 463.08 200"><defs><style>.cls-1{fill:#1e1c55;}.cls-2{fill:#fff;}.cls-3{fill:#ff1c3b;}.cls-4{fill:#ffbd3d;}</style></defs><title>Badge5</title><g id="Layer_2" data-name="Layer 2"><g id="Badge"><g id="Badge5"><rect class="cls-1" width="463.08" height="200" rx="25"/><path class="cls-2" d="M94.27,144.61H88.8v-3.23h14.9v3.23H98.23v13.87h-4Z"/><path class="cls-2" d="M104.51,149.93c0-5.08,4-8.84,9.36-8.84s9.36,3.74,9.36,8.84-4,8.85-9.36,8.85S104.51,155,104.51,149.93Zm14.71,0a5.35,5.35,0,1,0-5.35,5.48A5.22,5.22,0,0,0,119.22,149.93Z"/><path class="cls-2" d="M141,147.59c0,3.81-2.86,6.18-7.43,6.18h-3.44v4.71h-4v-17.1h7.4C138.18,141.38,141,143.75,141,147.59Zm-4,0c0-1.88-1.22-3-3.64-3h-3.22v5.93h3.22C135.81,150.54,137,149.44,137,147.59Z"/><path class="cls-2" d="M176.85,141.38l-5.59,17.1H167l-3.76-11.58-3.89,11.58h-4.22l-5.62-17.1h4.1l3.86,12,4-12h3.67l3.91,12.12,4-12.12Z"/><path class="cls-2" d="M192.3,155.31v3.17H179.06v-17.1H192v3.18h-9v3.71h7.94v3.08H183v4Z"/><path class="cls-2" d="M211.14,153.82c0,3-2.35,4.66-6.84,4.66h-8.85v-17.1h8.36c4.27,0,6.47,1.79,6.47,4.45a4.11,4.11,0,0,1-2.27,3.76A4.23,4.23,0,0,1,211.14,153.82Zm-11.75-9.46v4h3.93c1.93,0,3-.68,3-2s-1.05-2-3-2Zm7.76,9c0-1.44-1.1-2.12-3.15-2.12h-4.61v4.22H204C206.05,155.5,207.15,154.87,207.15,153.4Z"/><path class="cls-2" d="M221.06,141.38h7.77c5.59,0,9.43,3.37,9.43,8.55s-3.84,8.55-9.43,8.55h-7.77Zm7.57,13.85c3.4,0,5.62-2,5.62-5.3s-2.22-5.3-5.62-5.3H225v10.6Z"/><path class="cls-2" d="M254.48,155.31v3.17H241.24v-17.1h12.92v3.18h-9v3.71h7.94v3.08h-7.94v4Z"/><path class="cls-2" d="M273.83,141.38l-7.4,17.1h-3.91l-7.38-17.1h4.28l5.2,12.22,5.28-12.22Z"/><path class="cls-2" d="M288.49,155.31v3.17H275.25v-17.1h12.92v3.18h-9v3.71h7.94v3.08h-7.94v4Z"/><path class="cls-2" d="M291.64,141.38h4v13.88h8.58v3.22H291.64Z"/><path class="cls-2" d="M305,149.93c0-5.08,3.95-8.84,9.35-8.84s9.36,3.74,9.36,8.84-4,8.85-9.36,8.85S305,155,305,149.93Zm14.7,0a5.35,5.35,0,1,0-5.35,5.48A5.21,5.21,0,0,0,319.74,149.93Z"/><path class="cls-2" d="M341.56,147.59c0,3.81-2.86,6.18-7.43,6.18h-3.44v4.71h-4v-17.1h7.4C338.7,141.38,341.56,143.75,341.56,147.59Zm-4,0c0-1.88-1.22-3-3.64-3h-3.22v5.93h3.22C336.33,150.54,337.55,149.44,337.55,147.59Z"/><path class="cls-2" d="M357.61,155.31v3.17H344.37v-17.1H357.3v3.18h-9v3.71h7.94v3.08h-7.94v4Z"/><path class="cls-2" d="M371.66,158.48l-3.3-4.76h-3.63v4.76h-4v-17.1h7.4c4.57,0,7.43,2.37,7.43,6.21a5.58,5.58,0,0,1-3.52,5.4l3.83,5.49ZM368,144.61h-3.22v6H368c2.42,0,3.64-1.13,3.64-3S370.37,144.61,368,144.61Z"/><polygon class="cls-2" points="66.02 43.06 38.78 43.06 38.78 51.09 52.4 51.09 52.4 52.13 52.4 85.62 62.25 85.62 62.25 52.13 62.25 51.09 66.02 51.09 66.02 85.62 75.87 85.62 75.87 51.09 75.87 43.06 66.02 43.06"/><rect class="cls-3" x="66.02" y="31.96" width="9.85" height="8.03"/><path class="cls-2" d="M122.35,51H110.82v-6.8h31.41V51H130.69V80.28h-8.34Z"/><path class="cls-2" d="M175.14,73.59v6.69H147.23V44.23h27.24v6.7H155.52v7.83h16.73v6.48H155.52v8.35Z"/><path class="cls-2" d="M179.93,62.26c0-10.87,8.34-18.64,19.57-18.64,6.23,0,11.43,2.26,14.83,6.38L209,55a11.58,11.58,0,0,0-9.06-4.23c-6.75,0-11.54,4.74-11.54,11.54s4.79,11.53,11.54,11.53A11.49,11.49,0,0,0,209,69.52l5.36,4.94c-3.4,4.17-8.6,6.44-14.88,6.44C188.27,80.9,179.93,73.12,179.93,62.26Z"/><path class="cls-2" d="M253.52,44.23V80.28h-8.34V65.5H228.8V80.28h-8.34V44.23h8.34V58.45h16.38V44.23Z"/><path class="cls-3" d="M262.59,44.23h8.34V80.28h-8.34Z"/><path class="cls-3" d="M312.8,80.28l-.06-21.63-10.6,17.82h-3.76L287.82,59.12V80.28H280V44.23h6.9l13.5,22.4,13.28-22.4h6.85l.1,36.05Z"/><path class="cls-3" d="M361,57.31c0,8-6,13-15.66,13H338v9.94h-8.34V44.23h15.6C354.92,44.23,361,49.23,361,57.31Zm-8.45,0c0-4-2.57-6.28-7.67-6.28H338V63.54h6.8C349.93,63.54,352.5,61.23,352.5,57.31Z"/><path class="cls-3" d="M367.39,44.23h8.34V73.48h18.08v6.8H367.39Z"/><path class="cls-3" d="M412.61,67.51V80.28h-8.35V67.41L390.31,44.23h8.86l9.62,16,9.63-16h8.19Z"/><path class="cls-4" d="M261.69,109.81l5.36.18-4.11,3.43,1.49,5.15-4.54-2.85-4.44,3,1.31-5.2-4.23-3.29,5.35-.36,1.82-5Z"/><path class="cls-4" d="M206.12,109.81l5.36.18-4.11,3.43,1.49,5.15-4.54-2.85-4.44,3,1.31-5.2L197,110.24l5.35-.36,1.82-5Z"/><path class="cls-4" d="M234.39,109.32l6.69.22-5.14,4.29,1.86,6.44-5.67-3.57-5.55,3.76,1.64-6.5-5.29-4.11,6.69-.45,2.27-6.3Z"/><rect class="cls-4" x="281.9" y="111.73" width="144.71" height="1.82"/><rect class="cls-4" x="38.78" y="111.73" width="144.71" height="1.82"/></g></g></g></svg>